PathFileType	4	(X/Y/Z)	S01_0017_Gait_markers.trc
DataRate	CameraRate	NumFrames	NumMarkers	Units	OrigDataRate	OrigDataStartFrame	OrigNumFrames
250.000000	250.000000	4	54	mm	250.000000	182	364
Frame#	Time	HEAD_ANT			R_HEAD			L_HEAD			C7			R_BACK			L_BACK			STERNUM			R_ACROMION			R_HUM_PROX			R_HUM_ANT			R_HUM_POST			R_ELBOW_LAT			R_ELBOW_MED			R_FOREARM			R_WIRST_LAT			R_WRITS_MED			R_HAND			L_ACROMION			L_HUM_PROX			L_HUM_ANT			L_HUM_POST			L_ELBOW_LAT			L_ELBOW_MED			L_FOREARM			L_WRIST_LAT			L_WIRST_MED			L_HAND			R_ILIAC			SACRUM			L_ILIAC			R_GTROCH			R_THIGH__1			R_THIGH_2			R_THIGH_3			R_THIGH_4			R_SHANK_1			R_SHANK_2			R_SHANK_3			R_SHANK_4			R_HEEL			R_FOOT_LAT			R_FOOT_MED			L_GTROCH			L_THIGH_1			L_THIGH_2			L_THIGH_3			L_THIGH_4			L_SHANK_1			L_SHANK_2			L_SHANK_3			L_SHANK_4			L_HEEL			L_FOOT_LAT			L_FOOT_MED			
		X1	Y1	Z1	X2	Y2	Z2	X3	Y3	Z3	X4	Y4	Z4	X5	Y5	Z5	X6	Y6	Z6	X7	Y7	Z7	X8	Y8	Z8	X9	Y9	Z9	X10	Y10	Z10	X11	Y11	Z11	X12	Y12	Z12	X13	Y13	Z13	X14	Y14	Z14	X15	Y15	Z15	X16	Y16	Z16	X17	Y17	Z17	X18	Y18	Z18	X19	Y19	Z19	X20	Y20	Z20	X21	Y21	Z21	X22	Y22	Z22	X23	Y23	Z23	X24	Y24	Z24	X25	Y25	Z25	X26	Y26	Z26	X27	Y27	Z27	X28	Y28	Z28	X29	Y29	Z29	X30	Y30	Z30	X31	Y31	Z31	X32	Y32	Z32	X33	Y33	Z33	X34	Y34	Z34	X35	Y35	Z35	X36	Y36	Z36	X37	Y37	Z37	X38	Y38	Z38	X39	Y39	Z39	X40	Y40	Z40	X41	Y41	Z41	X42	Y42	Z42	X43	Y43	Z43	X44	Y44	Z44	X45	Y45	Z45	X46	Y46	Z46	X47	Y47	Z47	X48	Y48	Z48	X49	Y49	Z49	X50	Y50	Z50	X51	Y51	Z51	X52	Y52	Z52	X53	Y53	Z53	X54	Y54	Z54	

183	0.728	1042.541015625	1712.361206054688	-360.7787475585934	984.737548828125	1661.998046875	-282.3048400878903	983.971435546875	1661.328491210938	-429.9321594238278	845.5408325195312	1489.713745117188	-357.1025390624997	773.4065551757812	1294.2177734375	-289.3270568847653	774.0050048828125	1295.602416992188	-423.5871887207028	1023.753295898438	1326.727294921875	-350.8385009765622	920.1090698242188	1442.729858398438	-182.7484436035153	891.00146484375	1282.86767578125	-91.9229202270505	957.0673217773438	1200.780151367188	-89.85639190673801	835.136474609375	1196.148559570312	-77.25665283203098	889.339111328125	1091.7138671875	-71.18283843994116	868.3790893554688	1083.504760742188	-151.5420684814451	1026.45556640625	931.9292602539062	-76.07167053222635	1078.018310546875	878.6181030273438	-118.7965545654295	1017.423583984375	839.1943359375	-81.3329544067381	1102.521850585938	794.7817993164062	-63.15403366088849	925.5260620117188	1442.358154296875	-522.8740234374997	891.84130859375	1274.133178710938	-612.565734863281	950.3684692382812	1190.91455078125	-614.9140624999998	828.0408325195312	1198.600463867188	-631.046691894531	882.2203979492188	1089.9931640625	-638.9117431640623	832.4276123046875	1088.213745117188	-579.239562988281	978.98095703125	911.0849609375001	-628.575256347656	1015.041381835938	851.7657470703126	-578.988586425781	961.0255126953125	829.2495117187501	-634.3843994140623	1036.766967773438	771.3410034179689	-627.9586791992185	904.573974609375	1039.57861328125	-177.8842315673826	792.7882080078125	1013.569885253906	-361.5377197265623	926.7258911132812	1034.818481445313	-524.6242065429685	842.0128173828125	906.6182861328125	-172.3621215820311	804.4642944335938	639.2536010742188	-192.1481475830077	862.6578369140625	638.5498046875	-186.1422119140624	840.565673828125	538.2664184570312	-217.2601928710936	780.1030883789062	562.0147094726562	-214.0520172119139	654.42138671875	377.0589599609376	-214.1095886230468	687.7470092773438	328.8843078613282	-229.0497131347655	636.159423828125	262.7266235351563	-247.9488830566406	587.715087890625	302.9814758300782	-239.8491973876953	437.4328308105469	162.7783355712891	-323.7455749511718	541.3095703125	29.16142845153814	-250.5084075927734	602.3168334960938	28.20737266540535	-345.1604919433594	907.5564575195312	923.0039672851564	-535.262268066406	1086.267822265625	676.6343383789064	-499.5477905273436	1031.958374023438	674.3558349609376	-523.1248168945311	1049.607055664062	574.9651489257814	-486.3406677246093	1106.787963867188	600.4340820312501	-469.1447753906249	1151.207763671875	333.4040527343751	-465.2274780273437	1100.886596679688	299.183319091797	-469.2198486328124	1117.7685546875	214.904022216797	-451.5310363769531	1177.346801757812	236.6765136718751	-441.5343627929687	1112.617065429688	36.07115936279305	-378.5663757324219	1290.375732421875	28.54666328430186	-441.6117248535156	1324.339477539062	49.11550140380867	-344.3858947753906	
184	0.732	1048.142578125	1712.95166015625	-361.805999755859	990.2745361328125	1662.45458984375	-283.3334655761715	989.6845092773438	1661.909057617188	-430.8533020019528	851.477783203125	1490.276733398438	-358.0683593749997	779.1708984375	1294.57373046875	-289.763244628906	779.9003295898438	1295.960205078125	-424.4240722656247	1029.750610351562	1327.331665039062	-351.483215332031	925.6807861328125	1443.161743164062	-183.4221038818356	896.2195434570312	1283.242309570312	-92.73971557617159	962.2102661132812	1201.173217773438	-90.46868133544895	840.2929077148438	1196.58447265625	-78.36353302001926	894.5636596679688	1092.170166015625	-72.03238677978491	873.927490234375	1083.790283203125	-152.360397338867	1030.721069335938	931.6060791015625	-76.18791198730447	1082.09228515625	877.9046020507812	-118.3981475830076	1021.149841308594	838.8313598632812	-81.37205505371075	1106.01806640625	793.968994140625	-62.58341598510724	931.4346313476562	1442.5361328125	-523.7304077148434	898.1106567382812	1274.066162109375	-613.0512695312498	956.7499389648438	1191.017211914063	-615.132629394531	834.4453735351562	1198.361572265625	-631.446350097656	888.6449584960938	1090.027954101563	-639.0189208984373	838.8425903320312	1088.248657226563	-579.465881347656	985.0361938476562	910.7757568359376	-628.8461303710935	1021.110778808594	851.4329833984376	-579.2756347656248	966.7987060546875	829.0112304687501	-634.5842285156248	1042.418701171875	771.0780029296876	-628.2763671874998	911.8285522460938	1039.429077148438	-178.3326263427732	798.9432373046875	1014.020568847656	-361.4149475097654	932.1089477539062	1035.25927734375	-525.0885009765623	848.6970825195312	905.9737548828125	-172.5313415527342	812.3191528320312	638.5208740234375	-192.3871765136717	870.5902099609375	638.1300048828125	-186.2153472900389	848.8430786132812	537.5194702148438	-217.2027587890624	788.362060546875	561.2918701171875	-213.9549407958983	661.34375	378.2237548828126	-213.4464721679687	694.1530151367188	329.4866333007813	-228.1830291748046	641.6634521484375	263.6345520019532	-247.4277343749999	593.7698974609375	304.7873535156251	-239.0320129394531	442.2420959472656	167.0114746093751	-322.8142089843749	542.2509765625	30.06789970397955	-250.6431884765625	602.4829711914062	28.1590995788575	-345.2446899414062	913.7421264648438	924.3510131835939	-535.5250244140623	1093.3330078125	678.0131225585939	-499.1023559570311	1039.108642578125	675.7955322265626	-523.3662109374999	1056.878662109375	576.3610229492189	-486.9643249511718	1113.859741210938	602.0899047851564	-469.3565368652343	1156.148315429688	333.477264404297	-465.6741027832031	1105.354248046875	299.878387451172	-469.9553833007812	1120.906494140625	215.4485168457032	-452.3544006347656	1180.724243164062	236.0831298828126	-441.4628295898437	1113.035034179688	36.5465621948243	-378.9397583007812	1291.102905273438	26.70653343200694	-440.8344116210938	1324.632934570312	46.61387634277352	-343.510498046875	
185	0.736	1053.776977539062	1713.426879882812	-362.7384643554684	995.8858642578125	1663.105346679688	-284.0465698242184	995.3313598632812	1662.272094726562	-431.9017944335934	857.412109375	1490.790893554688	-358.6897583007809	785.25341796875	1294.56640625	-291.1552124023435	785.8634033203125	1296.291748046875	-425.1448974609372	1035.754760742188	1327.999755859375	-352.2054443359372	931.259033203125	1443.6953125	-184.1172027587887	901.4389038085938	1283.714477539062	-93.57443237304659	967.400146484375	1201.592041015625	-90.93300628662082	845.5756225585938	1197.114501953125	-79.46319580078098	899.5669555664062	1092.585815429688	-72.81446838378882	879.1583862304688	1084.422241210938	-153.4300537109373	1034.852416992188	931.347900390625	-76.19725799560526	1086.079711914062	877.3202514648438	-118.1113433837889	1024.755981445312	838.5662841796875	-81.33258056640607	1109.211059570312	793.3483276367188	-62.22976303100568	937.3942260742188	1442.655151367188	-524.4317626953122	904.4031372070312	1274.059448242188	-613.368469238281	963.2383422851562	1190.998413085938	-615.2947998046873	840.6835327148438	1198.677978515625	-633.122131347656	894.8104248046875	1090.194458007813	-639.2118530273435	845.1671752929688	1088.285400390625	-579.5793457031248	991.1162719726562	910.5969848632814	-629.162658691406	1027.075317382812	851.0776367187501	-579.4873046874998	972.845458984375	828.9412841796876	-634.936584472656	1048.384887695312	770.6928100585939	-628.4364013671873	921.6727905273438	1039.480224609375	-177.8024597167966	805.2496948242188	1014.273803710938	-361.2270507812498	937.954833984375	1036.040405273438	-525.830139160156	855.49462890625	905.4241333007812	-172.5684661865232	820.3720092773438	637.8018188476562	-192.647003173828	878.4182739257812	637.8869018554688	-186.189971923828	857.280029296875	536.9293823242188	-216.9319915771483	796.8806762695312	560.4263305664062	-213.7777557373046	668.480224609375	379.0094299316407	-213.0946960449218	700.6911010742188	330.0133056640626	-227.5245513916015	647.4957275390625	264.6937255859376	-246.6163482666015	600.063720703125	306.4241638183594	-238.3671874999999	447.3855285644531	171.0329132080079	-321.8059692382812	543.4861450195312	31.18643188476568	-250.5048980712891	602.6830444335938	28.11557579040535	-345.3840942382812	919.8075561523438	925.8947143554689	-535.8336181640623	1099.93994140625	679.5217895507814	-497.4626159667967	1045.803100585938	677.1339721679689	-522.2029418945311	1064.393310546875	577.4805908203126	-487.402862548828	1120.4619140625	603.8090209960939	-470.1335449218749	1160.704223632812	333.3815917968751	-465.7331848144531	1109.7236328125	300.4198303222657	-470.7866516113281	1123.715698242188	215.7530822753907	-452.7334899902343	1183.75	235.5376892089845	-441.3362121582031	1113.556762695312	37.11087417602548	-379.2537841796875	1291.911743164062	25.41135787963877	-440.5963439941406	1324.677490234375	44.00187683105477	-342.3956604003906	
186	0.74	1059.409423828125	1713.902954101562	-363.6148681640621	1001.316345214844	1663.547729492188	-285.0968627929684	1001.080932617188	1662.750122070312	-432.9128112792965	863.3516845703125	1491.300415039062	-359.6127319335934	791.12255859375	1294.763427734375	-291.9129333496091	791.7315673828125	1296.6015625	-426.0420837402341	1041.675170898438	1328.707275390625	-352.9866638183591	936.9354248046875	1444.315185546875	-184.7374114990231	906.7657470703125	1284.172729492188	-94.42175292968722	972.6051025390625	1202.115234375	-91.45668029785129	850.7979736328125	1197.575317382812	-80.4789962768552	904.66552734375	1093.134765625	-73.86849975585913	884.7518310546875	1084.887817382812	-154.3235778808591	1038.843383789062	930.9863891601562	-76.38028717040994	1090.050048828125	876.7098999023438	-117.9003982543943	1028.340209960938	838.391845703125	-81.31045532226544	1112.380615234375	792.687744140625	-61.76160049438459	943.4302978515625	1442.941162109375	-525.0588378906247	910.6282348632812	1274.242309570313	-613.970764160156	969.6741333007812	1191.100830078125	-615.441711425781	847.1793823242188	1198.383422851563	-632.6420898437498	898.814697265625	1091.321411132813	-640.096252441406	851.6831665039062	1088.36474609375	-579.6989135742185	997.2762451171875	910.5927124023439	-629.324035644531	1032.838989257812	850.9815063476564	-579.5939941406248	978.770263671875	829.0131225585939	-635.278137207031	1053.9921875	770.6193237304689	-628.697814941406	928.8807373046875	1039.511596679688	-178.2509613037107	811.0748901367188	1014.797668457031	-361.4020385742185	943.4578247070312	1037.017456054688	-526.188781738281	862.2425537109375	904.9197998046875	-172.6401367187498	828.4488525390625	637.2115478515625	-192.6668243408202	886.4511108398438	637.6072387695312	-185.9073791503905	865.8522338867188	536.3587036132812	-216.5475616455077	805.4385986328125	559.5743408203125	-213.5635528564452	675.8067016601562	380.1329956054688	-212.5392761230468	707.492431640625	330.6303405761719	-226.181655883789	653.4466552734375	265.9432373046876	-245.5585937499999	606.4143676757812	308.1588439941407	-237.8286895751953	453.0303955078125	175.148422241211	-321.4554443359374	544.7661743164062	32.1830558776856	-250.5682067871094	602.9573364257812	28.0718250274659	-345.4978637695312	925.684326171875	927.3814697265626	-536.0559082031248	1107.17529296875	681.0453491210939	-498.4283752441405	1053.361938476562	678.1826171875001	-523.1531982421874	1071.616577148438	578.8066406250001	-488.3005981445311	1127.5537109375	605.4100952148439	-470.2592468261718	1164.920776367188	333.2959289550782	-465.6847534179687	1113.767700195312	300.7474975585939	-471.4102172851562	1126.5869140625	215.8942260742189	-453.3487854003906	1186.626953125	235.1246337890626	-441.4491577148437	1114.16943359375	37.57347488403329	-379.4896850585938	1292.70654296875	24.65470314025889	-440.799560546875	1325.03466796875	41.80121994018563	-341.2686767578125	
